<svg width="425" height="128" viewBox="0 0 425 128" fill="none" xmlns="http://www.w3.org/2000/svg">
<path d="M29.1 28H58.2V38H40.1V57.5H54.3V67.5H40.1V98H29.1V28ZM79.475 99C74.1417 99 70.075 97.5 67.275 94.5C64.475 91.4333 63.075 87.0667 63.075 81.4V28H74.075V82.2C74.075 84.6 74.5417 86.3333 75.475 87.4C76.475 88.4667 77.875 89 79.675 89C81.475 89 82.8417 88.4667 83.775 87.4C84.775 86.3333 85.275 84.6 85.275 82.2V28H95.875V81.4C95.875 87.0667 94.475 91.4333 91.675 94.5C88.875 97.5 84.8084 99 79.475 99ZM103.709 28H114.709V88H132.809V98H103.709V28ZM138.084 28H149.084V88H167.184V98H138.084V28ZM186.759 99C181.426 99 177.393 97.5 174.659 94.5C171.926 91.4333 170.559 87.0667 170.559 81.4V77.4H180.959V82.2C180.959 86.7333 182.859 89 186.659 89C188.526 89 189.926 88.4667 190.859 87.4C191.859 86.2667 192.359 84.4667 192.359 82C192.359 79.0667 191.693 76.5 190.359 74.3C189.026 72.0333 186.559 69.3333 182.959 66.2C178.426 62.2 175.259 58.6 173.459 55.4C171.659 52.1333 170.759 48.4667 170.759 44.4C170.759 38.8667 172.159 34.6 174.959 31.6C177.759 28.5333 181.826 27 187.159 27C192.426 27 196.393 28.5333 199.059 31.6C201.793 34.6 203.159 38.9333 203.159 44.6V47.5H192.759V43.9C192.759 41.5 192.293 39.7667 191.359 38.7C190.426 37.5667 189.059 37 187.259 37C183.593 37 181.759 39.2333 181.759 43.7C181.759 46.2333 182.426 48.6 183.759 50.8C185.159 53 187.659 55.6667 191.259 58.8C195.859 62.8 199.026 66.4333 200.759 69.7C202.493 72.9667 203.359 76.8 203.359 81.2C203.359 86.9333 201.926 91.3333 199.059 94.4C196.259 97.4667 192.159 99 186.759 99ZM225.166 99C219.9 99 215.866 97.5 213.066 94.5C210.333 91.5 208.966 87.2667 208.966 81.8V44.2C208.966 38.7333 210.333 34.5 213.066 31.5C215.866 28.5 219.9 27 225.166 27C230.433 27 234.433 28.5 237.166 31.5C239.966 34.5 241.366 38.7333 241.366 44.2V51.6H230.966V43.5C230.966 39.1667 229.133 37 225.466 37C221.8 37 219.966 39.1667 219.966 43.5V82.6C219.966 86.8667 221.8 89 225.466 89C229.133 89 230.966 86.8667 230.966 82.6V71.9H241.366V81.8C241.366 87.2667 239.966 91.5 237.166 94.5C234.433 97.5 230.433 99 225.166 99ZM247.948 28H264.248C269.914 28 274.048 29.3333 276.648 32C279.248 34.6 280.548 38.6333 280.548 44.1V48.4C280.548 55.6667 278.148 60.2667 273.348 62.2V62.4C276.014 63.2 277.881 64.8333 278.948 67.3C280.081 69.7667 280.648 73.0667 280.648 77.2V89.5C280.648 91.5 280.714 93.1333 280.848 94.4C280.981 95.6 281.314 96.8 281.848 98H270.648C270.248 96.8667 269.981 95.8 269.848 94.8C269.714 93.8 269.648 92 269.648 89.4V76.6C269.648 73.4 269.114 71.1667 268.048 69.9C267.048 68.6333 265.281 68 262.748 68H258.948V98H247.948V28ZM262.948 58C265.148 58 266.781 57.4333 267.848 56.3C268.981 55.1667 269.548 53.2667 269.548 50.6V45.2C269.548 42.6667 269.081 40.8333 268.148 39.7C267.281 38.5667 265.881 38 263.948 38H258.948V58H262.948ZM288.28 28H318.28V38H299.28V56.5H314.38V66.5H299.28V88H318.28V98H288.28V28ZM324.608 28H354.608V38H335.608V56.5H350.708V66.5H335.608V88H354.608V98H324.608V28ZM360.936 28H374.736L385.436 69.9H385.636V28H395.436V98H384.136L370.936 46.9H370.736V98H360.936V28Z" fill="#3F3F3F"/>
<line x1="420.5" y1="76" x2="420.5" y2="128" stroke="#3F3F3F" stroke-width="9"/>
<line x1="375" y1="123.5" x2="425" y2="123.5" stroke="#3F3F3F" stroke-width="9"/>
<line x1="4.5" y1="52" x2="4.49999" y2="5.90104e-07" stroke="#3F3F3F" stroke-width="9"/>
<line x1="50" y1="4.5" x2="7.86805e-07" y2="4.50001" stroke="#3F3F3F" stroke-width="9"/>
</svg>
