<?xml version="1.0" encoding="UTF-8"?><svg xmlns="http://www.w3.org/2000/svg" viewBox="0 0 556 136.18"><defs><style>.e,.f{fill:#fff;}.f{stroke:#fff;stroke-miterlimit:10;stroke-width:12px;}</style></defs><g id="a"/><g id="b"><g id="c"><g id="d"><line class="f" x1="550" y1="70" x2="550" y2="133"/><line class="f" x1="526" y1="127" x2="556" y2="127"/><line class="f" x1="30" y1="6" y2="6"/><g><path class="e" d="M29.7,107.48V26.48H63v10.2h-18.5v23.6h15.1v10.3h-15.1v36.9h-14.8Z"/><path class="e" d="M96.2,108.58c-6,0-10.67-1.1-14-3.3-3.33-2.2-5.63-5.33-6.9-9.4-1.27-4.07-1.9-8.93-1.9-14.6V26.48h14.4v56.5c0,2.53,.17,4.92,.5,7.15,.33,2.23,1.12,4.03,2.35,5.4,1.23,1.37,3.08,2.05,5.55,2.05,2.6,0,4.48-.68,5.65-2.05,1.17-1.37,1.93-3.17,2.3-5.4,.37-2.23,.55-4.62,.55-7.15V26.48h14.3v54.8c0,5.67-.63,10.53-1.9,14.6-1.27,4.07-3.55,7.2-6.85,9.4-3.3,2.2-7.98,3.3-14.05,3.3Z"/><path class="e" d="M133.6,107.48V26.48h14.8V97.28h19.6v10.2h-34.4Z"/><path class="e" d="M178.7,107.48V26.48h14.8V97.28h19.6v10.2h-34.4Z"/><path class="e" d="M243.8,108.58c-4.87,0-8.93-.95-12.2-2.85-3.27-1.9-5.73-4.68-7.4-8.35-1.67-3.67-2.6-8.17-2.8-13.5l12.7-2.5c.13,3.13,.52,5.9,1.15,8.3,.63,2.4,1.6,4.25,2.9,5.55,1.3,1.3,3.02,1.95,5.15,1.95,2.4,0,4.1-.72,5.1-2.15,1-1.43,1.5-3.25,1.5-5.45,0-3.53-.8-6.43-2.4-8.7-1.6-2.27-3.73-4.53-6.4-6.8l-10.2-9c-2.87-2.47-5.15-5.22-6.85-8.25-1.7-3.03-2.55-6.78-2.55-11.25,0-6.4,1.87-11.33,5.6-14.8,3.73-3.47,8.83-5.2,15.3-5.2,3.8,0,6.96,.58,9.5,1.75,2.53,1.17,4.55,2.78,6.05,4.85,1.5,2.07,2.62,4.42,3.35,7.05,.73,2.63,1.2,5.42,1.4,8.35l-12.6,2.2c-.13-2.53-.42-4.8-.85-6.8-.43-2-1.2-3.57-2.3-4.7-1.1-1.13-2.72-1.7-4.85-1.7s-3.88,.72-5.05,2.15c-1.17,1.43-1.75,3.22-1.75,5.35,0,2.73,.57,4.98,1.7,6.75,1.13,1.77,2.77,3.58,4.9,5.45l10.1,8.9c3.33,2.8,6.18,6.08,8.55,9.85,2.37,3.77,3.55,8.32,3.55,13.65,0,3.87-.85,7.3-2.55,10.3s-4.07,5.35-7.1,7.05c-3.03,1.7-6.58,2.55-10.65,2.55Z"/><path class="e" d="M297.6,108.58c-5.93,0-10.58-1.17-13.95-3.5-3.37-2.33-5.72-5.52-7.05-9.55-1.33-4.03-2-8.68-2-13.95v-28.9c0-5.53,.67-10.33,2-14.4,1.33-4.07,3.68-7.2,7.05-9.4,3.37-2.2,8.02-3.3,13.95-3.3,5.6,0,9.98,.95,13.15,2.85,3.17,1.9,5.42,4.62,6.75,8.15,1.33,3.53,2,7.63,2,12.3v6.8h-14.2v-7c0-2.27-.12-4.33-.35-6.2-.23-1.87-.87-3.35-1.9-4.45-1.04-1.1-2.82-1.65-5.35-1.65s-4.38,.58-5.55,1.75c-1.17,1.17-1.92,2.73-2.25,4.7-.33,1.97-.5,4.18-.5,6.65v35.2c0,2.93,.23,5.35,.7,7.25,.47,1.9,1.32,3.33,2.55,4.3,1.23,.97,2.92,1.45,5.05,1.45,2.47,0,4.22-.58,5.25-1.75,1.03-1.17,1.68-2.72,1.95-4.65,.27-1.93,.4-4.1,.4-6.5v-7.3h14.2v6.5c0,4.8-.63,9.05-1.9,12.75-1.27,3.7-3.48,6.6-6.65,8.7-3.17,2.1-7.62,3.15-13.35,3.15Z"/><path class="e" d="M332.8,107.48V26.48h19.4c5.47,0,10.08,.65,13.85,1.95,3.77,1.3,6.63,3.52,8.6,6.65,1.96,3.13,2.95,7.4,2.95,12.8,0,3.27-.3,6.2-.9,8.8-.6,2.6-1.62,4.82-3.05,6.65-1.43,1.83-3.42,3.25-5.95,4.25l11.3,39.9h-14.8l-9.8-37.1h-6.8v37.1h-14.8Zm14.8-46.4h4.6c2.87,0,5.15-.42,6.85-1.25,1.7-.83,2.92-2.17,3.65-4,.73-1.83,1.1-4.18,1.1-7.05,0-4.07-.75-7.12-2.25-9.15-1.5-2.03-4.35-3.05-8.55-3.05h-5.4v24.5Z"/><path class="e" d="M391.9,107.48V26.48h34v10.4h-19.2v23.3h15.1v10.3h-15.1v26.8h19.4v10.2h-34.2Z"/><path class="e" d="M437.69,107.48V26.48h34v10.4h-19.2v23.3h15.1v10.3h-15.1v26.8h19.4v10.2h-34.2Z"/><path class="e" d="M483.49,107.48V26.48h10.3l19.7,46.2V26.48h12.2V107.48h-9.8l-19.8-48.4v48.4h-12.6Z"/></g><line class="f" x1="6" y1="70" x2="6"/></g></g></g></svg>